<svg xmlns="http://www.w3.org/2000/svg" viewBox="0 0 512 512" fill="none">
  <!-- Document page -->
  <path d="M128 48h176l80 80v336c0 17.7-14.3 32-32 32H128c-17.7 0-32-14.3-32-32V80c0-17.7 14.3-32 32-32z" fill="#3B82F6"/>
  <!-- Folded corner -->
  <path d="M304 48v48c0 17.7 14.3 32 32 32h48L304 48z" fill="#2563EB"/>
  <!-- Text lines on page -->
  <rect x="136" y="192" width="176" height="12" rx="6" fill="#DBEAFE"/>
  <rect x="136" y="224" width="144" height="12" rx="6" fill="#DBEAFE"/>
  <rect x="136" y="256" width="160" height="12" rx="6" fill="#DBEAFE"/>
  <rect x="136" y="288" width="120" height="12" rx="6" fill="#DBEAFE"/>
  <!-- Pen nib (angled, overlapping bottom-right) -->
  <g transform="translate(296, 280) rotate(-45)">
    <rect x="0" y="0" width="24" height="140" rx="4" fill="#111827"/>
    <polygon points="4,140 20,140 12,164" fill="#111827"/>
    <rect x="0" y="0" width="24" height="28" rx="4" fill="#64748B"/>
  </g>
</svg>
